<?xml version="1.0" encoding="utf-8"?>
<!-- Generator: Adobe Illustrator 26.2.1, SVG Export Plug-In . SVG Version: 6.00 Build 0)  -->
<svg version="1.1" id="Layer_1" xmlns="http://www.w3.org/2000/svg" xmlns:xlink="http://www.w3.org/1999/xlink" x="0px" y="0px"
	 viewBox="0 0 841.89 595.28" style="enable-background:new 0 0 841.89 595.28;" xml:space="preserve">
<style type="text/css">
	.st0{filter:url(#Adobe_OpacityMaskFilter);}
	.st1{fill:url(#SVGID_00000067226734133366051180000002882931114392412603_);}
	.st2{mask:url(#SVGID_1_);}
	.st3{fill:none;stroke:#00AEEF;stroke-width:1.149;stroke-miterlimit:10;}
	.st4{filter:url(#Adobe_OpacityMaskFilter_00000167373372747025423590000013517252672084106409_);}
	.st5{fill:url(#SVGID_00000071519999701834926440000011182819836812756361_);}
	.st6{fill:none;stroke:#00AEEF;stroke-width:2.022;stroke-miterlimit:10;}
</style>
<g>
	<defs>
		<filter id="Adobe_OpacityMaskFilter" filterUnits="userSpaceOnUse" x="113.05" y="74.82" width="614.89" height="539.7">
			<feFlood  style="flood-color:white;flood-opacity:1" result="back"/>
			<feBlend  in="SourceGraphic" in2="back" mode="normal"/>
		</filter>
	</defs>
	<mask maskUnits="userSpaceOnUse" x="113.05" y="74.82" width="614.89" height="539.7" id="SVGID_1_">
		<g class="st0">
			
				<linearGradient id="SVGID_00000040540280090936984210000017563403298769332872_" gradientUnits="userSpaceOnUse" x1="1.0632" y1="596.7587" x2="2.0632" y2="596.7587" gradientTransform="matrix(0 293.316 293.316 0 -174618.3438 -109.2471)">
				<stop  offset="0" style="stop-color:#FFFFFF"/>
				<stop  offset="1" style="stop-color:#000000"/>
			</linearGradient>
			
				<rect x="113.05" y="74.82" style="fill:url(#SVGID_00000040540280090936984210000017563403298769332872_);" width="614.89" height="539.7"/>
		</g>
	</mask>
	<g class="st2">
		<g>
			<path class="st3" d="M223.47,75.47c0.73-0.05,1.47-0.15,2.19,0.02c0.28,7.84,0.2,15.82,0.03,23.67l-2.27-0.01
				C223.34,91.26,223.41,83.36,223.47,75.47z"/>
			<path class="st3" d="M146.13,106.9c6.52,5.74,12.63,12.08,18.88,18.12l-1.53,1.84c-2.27-1.73-4.35-4.07-6.42-6.06
				c-4.2-4.04-8.62-8.02-12.46-12.39L146.13,106.9z"/>
			<path class="st3" d="M322.35,180.62l12.83-0.05l0.01,2.62l-12.16,0.01l-13.06,0c0-0.82-0.04-1.61,0.24-2.4
				C313.34,180.25,318.95,180.63,322.35,180.62z"/>
			<path class="st3" d="M113.66,180.38l25.26-0.03l0,2.7c-8.43-0.09-16.85-0.1-25.28-0.04L113.66,180.38z"/>
			<path class="st3" d="M163.15,249.9c0.64,0.46,1.19,1.1,1.76,1.65c-2.1,2.46-4.47,4.72-6.75,7.02c-3.89,3.88-7.74,7.8-11.54,11.77
				c-0.72-0.38-1.29-1.22-1.82-1.84C150.45,261.98,157.01,255.98,163.15,249.9z"/>
			<path class="st3" d="M287.16,249.97c2.27,1.93,4.39,4.31,6.5,6.42c4.03,4.03,8.08,8.03,11.83,12.32l-1.68,1.71
				c-2.42-1.93-4.67-4.59-6.85-6.8c-3.86-3.92-7.88-7.79-11.51-11.9L287.16,249.97z"/>
			<path class="st3" d="M303.73,105.64c0.82,0.19,1.35,0.78,1.94,1.33c-2.43,3.58-5.94,6.72-8.99,9.77
				c-3.62,3.6-7.2,7.24-10.75,10.92l-1.99-2.21c2.28-2.62,4.9-5.03,7.36-7.48L303.73,105.64z"/>
			<path class="st3" d="M207.19,298.5c3.66-0.07,7.34,0.06,11.01,0.05c4.15-0.02,21.69-0.49,24.15,0.3
				c0.78,0.25,1.47,0.71,1.83,1.47c0.35,0.75,0.27,1.61-0.01,2.37c-0.43,1.15-1.17,1.66-2.25,2.15c-4.53,0.19-33.31,0.38-35.53-0.38
				c-0.65-0.23-1.19-0.73-1.5-1.34c-0.05-0.1-0.09-0.2-0.12-0.3c-0.04-0.1-0.07-0.2-0.09-0.31c-0.03-0.1-0.05-0.21-0.06-0.32
				c-0.01-0.11-0.02-0.21-0.03-0.32c0-0.11,0-0.21,0.01-0.32c0.01-0.11,0.02-0.21,0.04-0.32c0.02-0.11,0.04-0.21,0.07-0.31
				c0.03-0.1,0.06-0.21,0.1-0.3C205.25,299.52,206.17,298.97,207.19,298.5z"/>
			<path class="st3" d="M206.89,308.4c4.34-0.21,33.14-0.4,35.46,0.3c0.77,0.24,1.47,0.7,1.84,1.44c0.38,0.76,0.32,1.67,0.03,2.45
				c-0.44,1.19-1.18,1.65-2.28,2.17c-7.34,0.39-14.88,0.06-22.24,0.04c-3.33-0.01-9.34,0.36-12.44-0.2
				c-0.92-0.17-1.85-0.58-2.38-1.38c-0.49-0.74-0.49-1.6-0.28-2.43C204.95,309.5,205.79,309.02,206.89,308.4z"/>
			<defs>
				
					<filter id="Adobe_OpacityMaskFilter_00000047033472350609466820000011956327437809495229_" filterUnits="userSpaceOnUse" x="302.76" y="99.24" width="425.19" height="515.28">
					<feFlood  style="flood-color:white;flood-opacity:1" result="back"/>
					<feBlend  in="SourceGraphic" in2="back" mode="normal"/>
				</filter>
			</defs>
			<mask maskUnits="userSpaceOnUse" x="302.76" y="99.24" width="425.19" height="515.28" id="SVGID_1_">
				<g style="filter:url(#Adobe_OpacityMaskFilter_00000047033472350609466820000011956327437809495229_);">
					
						<linearGradient id="SVGID_00000004542961682734770330000005859777230180917419_" gradientUnits="userSpaceOnUse" x1="1.121" y1="596.6949" x2="2.121" y2="596.6949" gradientTransform="matrix(1.4062 161.1383 161.1383 -1.4062 -95732.6797 859.5196)">
						<stop  offset="0" style="stop-color:#FFFFFF"/>
						<stop  offset="1" style="stop-color:#000000"/>
					</linearGradient>
					<polygon style="fill:url(#SVGID_00000004542961682734770330000005859777230180917419_);" points="744.9,56.16 749.78,615.48 
						96.1,621.19 91.22,61.87 					"/>
				</g>
			</mask>
			<g>
				<g>
					<path class="st6" d="M683.61,140.36c0.88-6.49,3.27-12.15,8.59-16.22c4.86-3.72,10.81-5.01,16.83-4.08
						c0.35,0.05,0.71,0.12,1.06,0.19s0.7,0.15,1.04,0.24c0.35,0.09,0.69,0.19,1.03,0.3c0.34,0.11,0.68,0.22,1.01,0.35
						c0.33,0.12,0.67,0.26,0.99,0.4s0.65,0.29,0.97,0.45c0.32,0.16,0.64,0.32,0.95,0.5c0.31,0.17,0.62,0.36,0.92,0.55
						c0.3,0.19,0.6,0.39,0.89,0.59c0.29,0.2,0.58,0.42,0.86,0.64c0.28,0.22,0.56,0.45,0.83,0.68c0.27,0.23,0.53,0.47,0.79,0.72
						c0.26,0.25,0.51,0.5,0.75,0.76c0.24,0.26,0.48,0.53,0.71,0.8c0.23,0.27,0.46,0.55,0.67,0.84c0.22,0.28,0.43,0.57,0.63,0.87
						c3.23,4.66,4.52,10.91,3.4,16.45c-0.07,0.35-0.15,0.69-0.23,1.04c-0.09,0.34-0.18,0.68-0.29,1.02
						c-0.1,0.34-0.22,0.68-0.34,1.01c-0.12,0.33-0.25,0.66-0.39,0.99c-0.14,0.33-0.28,0.65-0.43,0.97
						c-0.15,0.32-0.31,0.64-0.48,0.95c-0.17,0.31-0.34,0.62-0.53,0.92c-0.18,0.3-0.38,0.6-0.57,0.89c-0.2,0.29-0.41,0.58-0.62,0.86
						c-0.21,0.28-0.43,0.56-0.66,0.83c-0.23,0.27-0.46,0.54-0.7,0.8c-0.24,0.26-0.49,0.51-0.74,0.76c-0.25,0.25-0.51,0.49-0.78,0.72
						c-0.26,0.24-0.54,0.46-0.81,0.68c-0.28,0.22-0.56,0.43-0.84,0.64c-0.29,0.21-0.58,0.41-0.88,0.6
						c-4.84,3.19-10.54,4.25-16.23,3.06c-5.77-1.21-10.59-4.47-13.76-9.47c-1.9-2.99-2.84-6.16-3.65-9.58l-80.54,0.08
						c-0.58,11.49-5.65,21.64-14.21,29.32c-8.21,7.37-18.34,10.93-29.36,10.3c-0.68-0.04-1.36-0.09-2.04-0.17
						c-0.68-0.07-1.35-0.16-2.03-0.27c-0.67-0.11-1.35-0.23-2.01-0.37c-0.67-0.14-1.33-0.29-1.99-0.46
						c-0.66-0.17-1.32-0.36-1.97-0.56c-0.65-0.2-1.3-0.42-1.94-0.66c-0.64-0.24-1.27-0.49-1.9-0.75c-0.63-0.27-1.25-0.55-1.86-0.85
						c-0.61-0.3-1.22-0.61-1.82-0.94s-1.19-0.67-1.77-1.02c-0.58-0.36-1.16-0.73-1.72-1.11c-0.56-0.38-1.12-0.78-1.66-1.19
						c-0.54-0.41-1.08-0.84-1.6-1.27c-0.52-0.44-1.04-0.89-1.54-1.35c-0.5-0.46-0.99-0.94-1.47-1.43c-0.48-0.49-0.94-0.98-1.4-1.49
						c-6.67-7.52-9.58-15.88-10.71-25.73l-33.32-0.04c-5.49,0-11.26,0.37-16.72-0.07c-2.56,2.21-6.43,9.37-8.45,12.48
						c-7.76,11.95-15.15,24.4-23.59,35.88l11.15,17.29c2.02,3.13,4.34,6.27,5.99,9.61c-6.21,8.23-11.61,17.47-17.14,26.19
						c-9.1-0.08-18.22-0.29-27.32-0.04c-4.78,7.67-9.96,15.1-14.95,22.64l-24.59,37.25l-11.18,17c-2.24,3.41-4.39,7.18-7.13,10.2
						c4.42,6.54,8.39,13.36,12.33,20.2c19.69,0.1,39.37,0.07,59.06-0.09l104.95,0.2c-0.26-4.38-1.19-10.03,1.63-13.77
						c0.89-1.18,2.16-2.06,3.65-2.24c1.68-0.2,3.31,0.44,4.59,1.51c1.14,0.96,1.71,1.9,1.83,3.38c0.56,7.04,0.06,14.41,0.06,21.48
						c0,3.23,0.48,7.01,0.06,10.16c-0.2,1.45-0.83,2.9-1.83,3.98c-1.15,1.25-2.83,2.07-4.54,2.06c-1.43-0.01-2.65-0.55-3.62-1.59
						c-3.2-3.4-2.12-10.34-2-14.66c-6.85,0.28-13.82,0.08-20.68,0.08l-44.35-0.17l-98.53,0.23c-4.32,6.64-8.39,13.44-12.2,20.39
						c3.59,6.6,10.26,15.23,14.62,21.64l29.43,43.55c3.42,5.06,10.85,14.63,12.6,19.78c9.61-0.14,19.24,0.08,28.85,0.17
						c5.85,9.11,11.56,18.38,17.15,27.65l-11.46,18.29c-2.13,3.42-4.18,7.43-6.86,10.44c5.13,7.08,9.76,14.41,14.54,21.72
						c5.56,8.33,10.99,16.75,16.3,25.25c16.3,0.52,32.77,0.09,49.09,0.12c0.59-0.05,2.43-0.04,2.72-0.5c0.71-1.09,0.64-4.01,0.9-5.4
						c0.18-0.97,0.4-1.93,0.65-2.89s0.53-1.9,0.85-2.84c0.32-0.94,0.67-1.86,1.05-2.77c0.38-0.91,0.8-1.81,1.24-2.69
						c0.45-0.88,0.92-1.75,1.43-2.6c0.51-0.85,1.05-1.68,1.61-2.49c0.57-0.81,1.16-1.6,1.78-2.37c0.62-0.77,1.27-1.51,1.95-2.23
						c0.45-0.49,0.91-0.97,1.38-1.43c0.47-0.47,0.96-0.92,1.45-1.36c0.5-0.44,1-0.87,1.52-1.29c0.52-0.42,1.04-0.82,1.58-1.21
						c0.54-0.39,1.08-0.76,1.64-1.13c0.56-0.36,1.12-0.71,1.69-1.04c0.57-0.33,1.16-0.65,1.74-0.96c0.59-0.3,1.19-0.59,1.79-0.87
						c0.6-0.27,1.21-0.53,1.83-0.78c0.62-0.24,1.24-0.47,1.87-0.69c0.63-0.21,1.26-0.41,1.9-0.59c0.64-0.18,1.28-0.35,1.93-0.5
						c0.65-0.15,1.3-0.28,1.95-0.4c0.65-0.12,1.31-0.22,1.97-0.3c0.66-0.08,1.32-0.15,1.98-0.2s1.32-0.09,1.99-0.1
						c11.03-0.33,21.62,3.39,29.63,11.06c7.64,7.32,12.61,17.66,12.8,28.28c11.44,0.1,22.89-0.16,34.33,0.06
						c15.74-0.47,31.61-0.07,47.37-0.08c0.11-0.83,0.27-1.66,0.47-2.47s0.45-1.61,0.75-2.4c0.29-0.79,0.63-1.55,1.01-2.3
						c0.38-0.75,0.8-1.47,1.26-2.18c0.19-0.29,0.39-0.58,0.6-0.86c0.21-0.28,0.42-0.56,0.64-0.83c0.22-0.27,0.45-0.54,0.68-0.8
						c0.23-0.26,0.47-0.51,0.72-0.76c0.24-0.25,0.5-0.49,0.76-0.72c0.26-0.24,0.52-0.46,0.79-0.68c0.27-0.22,0.55-0.44,0.82-0.65
						c0.28-0.21,0.57-0.41,0.86-0.6c0.29-0.19,0.58-0.38,0.89-0.56c0.3-0.18,0.6-0.35,0.91-0.52c0.31-0.16,0.62-0.32,0.94-0.47
						c0.32-0.15,0.64-0.29,0.96-0.42c0.32-0.13,0.65-0.26,0.98-0.37c0.33-0.12,0.66-0.22,1-0.32c0.34-0.1,0.67-0.19,1.01-0.27
						c0.34-0.08,0.68-0.16,1.02-0.22c0.35-0.07,0.71-0.13,1.06-0.19c0.36-0.05,0.71-0.1,1.07-0.13c0.36-0.04,0.72-0.06,1.08-0.08
						c0.36-0.02,0.72-0.03,1.08-0.02c0.36,0,0.72,0.01,1.08,0.03c0.36,0.02,0.72,0.05,1.08,0.09c0.36,0.04,0.72,0.08,1.07,0.14
						c0.36,0.05,0.71,0.12,1.06,0.19c0.35,0.07,0.7,0.15,1.05,0.25c0.35,0.09,0.7,0.19,1.04,0.3c0.34,0.11,0.68,0.23,1.02,0.35
						c0.34,0.13,0.67,0.26,1,0.4c0.33,0.14,0.66,0.29,0.98,0.45c0.32,0.16,0.64,0.33,0.96,0.5c0.31,0.18,0.62,0.36,0.93,0.55
						c0.31,0.19,0.61,0.39,0.9,0.6c4.69,3.28,8.1,8.72,8.96,14.37c0.82,5.37-0.68,10.89-3.85,15.26c-3.32,4.58-8.01,7.6-13.62,8.43
						c-5.88,0.87-11.96-0.51-16.69-4.18c-5.37-4.17-7.41-9.54-8.33-16.06l-5.83-0.03l-75.81,0.09
						c-0.45,10.89-4.82,21.29-12.91,28.74c-0.5,0.46-1.01,0.9-1.53,1.33c-0.52,0.43-1.05,0.85-1.59,1.26
						c-0.54,0.41-1.09,0.8-1.65,1.18c-0.56,0.38-1.13,0.74-1.71,1.09c-0.58,0.35-1.17,0.69-1.76,1.01c-0.6,0.32-1.2,0.63-1.81,0.92
						c-0.61,0.29-1.23,0.57-1.85,0.83c-0.62,0.26-1.25,0.51-1.89,0.74c-0.64,0.23-1.28,0.45-1.92,0.65c-0.65,0.2-1.3,0.38-1.95,0.55
						c-0.66,0.17-1.32,0.32-1.98,0.45c-0.66,0.13-1.33,0.25-2,0.35c-0.67,0.1-1.34,0.19-2.01,0.26c-0.67,0.07-1.35,0.12-2.02,0.16
						c-0.67,0.04-1.35,0.06-2.03,0.06c-0.68,0-1.35-0.01-2.03-0.04c-0.68-0.03-1.37-0.09-2.05-0.15c-0.68-0.07-1.36-0.15-2.04-0.25
						c-0.68-0.1-1.36-0.22-2.03-0.36c-0.67-0.13-1.34-0.29-2.01-0.45c-0.67-0.17-1.33-0.35-1.98-0.55c-0.66-0.2-1.31-0.42-1.95-0.65
						c-0.65-0.23-1.29-0.48-1.92-0.75c-0.63-0.27-1.26-0.54-1.88-0.84c-0.62-0.29-1.23-0.61-1.84-0.93c-0.6-0.33-1.2-0.67-1.79-1.02
						c-0.59-0.35-1.17-0.72-1.73-1.11c-0.57-0.38-1.13-0.78-1.68-1.19c-0.55-0.41-1.09-0.84-1.62-1.28
						c-0.53-0.44-1.05-0.89-1.55-1.35c-0.51-0.46-1-0.94-1.48-1.43c-0.48-0.49-0.95-0.99-1.41-1.5
						c-6.03-6.65-10.37-16.62-10.19-25.69l-53.55-0.01c-6.45-9.58-12.8-19.22-19.04-28.94c-4.53-6.94-9.56-13.96-13.23-21.39
						c-8.81-0.2-17.66,0.1-26.46-0.22l-10.55-17.65c-2.04-3.41-3.96-7.01-6.31-10.21c6.26-8.22,11.02-18.1,16.36-26.97l-38.3-56.98
						c-6.03-9.01-12.73-17.78-18.24-27.11c-10.09-0.1-20.19-0.14-30.28-0.13c-5.48-9.05-10.83-18.36-16.95-26.99
						c5.75-9.17,12.05-18.34,16.99-27.98c10.1,0.12,20.2,0.16,30.31,0.1c11.47-18.32,23.91-36.1,35.8-54.16
						c4.81-7.31,9.49-14.69,14.41-21.94c2.35-3.46,4.63-7.32,7.57-10.29c-5.66-8.36-10.98-16.96-16.69-25.28
						c5.86-9,12.13-17.87,17.62-27.09l25.1-0.04c7.56-10.9,14.7-22.13,21.89-33.28c3.67-5.69,7.15-11.68,11.28-17.05
						c17.28,0.81,34.72-0.06,52.03,0.29c-0.32-8.25,3.15-17.05,7.97-23.61c0.4-0.55,0.82-1.09,1.24-1.62
						c0.43-0.53,0.87-1.04,1.32-1.55c0.45-0.51,0.92-1,1.4-1.48c0.48-0.48,0.97-0.95,1.47-1.41c0.5-0.46,1.02-0.9,1.54-1.34
						c0.53-0.43,1.06-0.85,1.61-1.26c0.54-0.41,1.1-0.8,1.66-1.18c0.57-0.38,1.14-0.74,1.72-1.09s1.17-0.69,1.78-1.01
						c0.6-0.32,1.21-0.63,1.82-0.92c0.61-0.29,1.24-0.57,1.87-0.83c0.63-0.26,1.26-0.5,1.91-0.73c0.64-0.23,1.29-0.44,1.94-0.64
						c0.65-0.2,1.31-0.37,1.97-0.54c0.66-0.16,1.32-0.31,1.99-0.44c0.67-0.13,1.34-0.24,2.01-0.34c0.66-0.1,1.33-0.17,1.99-0.24
						c0.67-0.06,1.33-0.11,2-0.14c0.67-0.03,1.34-0.04,2.01-0.04c0.67,0,1.34,0.02,2.01,0.06c0.67,0.04,1.33,0.09,2,0.16
						c0.67,0.07,1.33,0.15,1.99,0.26c0.66,0.1,1.32,0.22,1.98,0.35c0.65,0.13,1.31,0.28,1.96,0.45c0.65,0.16,1.29,0.35,1.93,0.54
						c0.64,0.2,1.27,0.41,1.9,0.64c0.63,0.23,1.25,0.47,1.87,0.73c0.62,0.26,1.23,0.53,1.83,0.82c0.6,0.29,1.2,0.59,1.79,0.91
						c0.59,0.32,1.17,0.65,1.74,1c0.57,0.35,1.14,0.71,1.69,1.08c0.55,0.38,1.1,0.76,1.63,1.16c10.72,8.03,15.57,18.97,17.49,31.89
						c22.05,0.32,44.14-0.49,66.19,0.05C674.19,140.35,678.9,140.31,683.61,140.36z"/>
				</g>
			</g>
			<path class="st3" d="M259.57,188.93c-1.14,3.8-2.53,7.2-4.3,10.74c2.26,2.86,4.45,5.76,6.59,8.71c-3.3,3.11-6.51,6.31-9.65,9.58
				c-2.87-2.06-5.62-4.3-8.39-6.5c-3.1,1.95-6.17,3.42-9.68,4.51c-0.38,2.71-1.06,7.75-1.96,10.18l-0.4,0.09
				c-4.72-0.14-9.45-0.03-14.17-0.01c-0.45-3.42-1.31-6.87-2.12-10.22c-3.49-1.09-6.53-2.3-9.64-4.28
				c-2.88,2.28-5.74,4.57-8.58,6.89c-3.06-3.48-6.67-6.57-9.84-9.98c2.05-3.15,4.32-6.19,6.42-9.31c-1.94-3.26-3.09-6.37-4.11-10
				c-3.34-0.75-6.65-1.7-9.96-2.58c0.19-4.19,0.11-8.4,0.12-12.59c3.37-0.6,6.75-1.17,10.07-2.01c1.04-3.52,2.28-6.65,4.07-9.87
				c-1.84-2.84-3.59-5.73-5.54-8.49c3.03-2.74,6.2-5.41,9.01-8.38l7.78,5.2c3.5-1.88,7.07-3.27,10.79-4.65
				c1.08-3.36,2.01-6.78,2.93-10.18c3.85-0.06,7.72,0.1,11.58,0.14c0.73,3.43,1.82,6.82,2.8,10.19c3.87,1.09,7.42,2.61,10.95,4.54
				c2.54-1.86,5.2-3.51,7.65-5.5c3.12,2.89,6.22,5.8,9.29,8.74c-1.93,3.04-4.1,5.9-6,8.95c1.52,2.98,2.93,5.87,4,9.05
				c3.74,0.64,7.5,1.42,11.27,1.83l0.08,13.06C266.93,187.4,263.26,188.27,259.57,188.93z M263.19,219.87l0-0.06l0.08,0.09
				L263.19,219.87z M300.66,170.04c-0.14-0.63-0.29-1.25-0.45-1.87c-0.16-0.62-0.32-1.24-0.49-1.86c-0.17-0.62-0.35-1.23-0.54-1.85
				c-0.19-0.61-0.38-1.23-0.58-1.83c-0.2-0.61-0.41-1.22-0.62-1.82c-0.22-0.61-0.44-1.21-0.67-1.81c-0.23-0.6-0.47-1.19-0.71-1.79
				c-0.24-0.59-0.5-1.18-0.76-1.77s-0.52-1.17-0.8-1.75c-0.27-0.58-0.55-1.16-0.84-1.73s-0.58-1.14-0.88-1.71
				c-0.3-0.57-0.61-1.13-0.92-1.69c-0.31-0.56-0.64-1.11-0.96-1.67c-0.33-0.55-0.66-1.1-1-1.64c-0.34-0.54-0.69-1.08-1.04-1.62
				s-0.71-1.07-1.08-1.59c-0.37-0.53-0.74-1.05-1.12-1.57c-0.38-0.52-0.77-1.03-1.16-1.54c-0.39-0.51-0.79-1.01-1.2-1.51
				c-0.4-0.5-0.81-0.99-1.23-1.48c-0.42-0.49-0.84-0.97-1.27-1.45c-0.43-0.48-0.86-0.95-1.3-1.42c-0.44-0.47-0.88-0.93-1.34-1.39
				c-0.45-0.46-0.91-0.91-1.37-1.35c-0.46-0.45-0.93-0.89-1.4-1.32c-0.47-0.43-0.95-0.86-1.43-1.29c-0.48-0.42-0.97-0.84-1.46-1.25
				c-0.49-0.41-0.99-0.82-1.49-1.22c-0.5-0.4-1.01-0.79-1.52-1.18c-0.51-0.39-1.03-0.77-1.55-1.14c-0.52-0.37-1.05-0.74-1.58-1.1
				c-0.53-0.36-1.06-0.72-1.6-1.07c-0.54-0.35-1.07-0.68-1.62-1.02c-0.54-0.33-1.09-0.66-1.64-0.97c-0.55-0.32-1.11-0.63-1.67-0.93
				c-0.56-0.3-1.12-0.6-1.69-0.89c-0.57-0.29-1.14-0.57-1.71-0.85c-0.57-0.28-1.15-0.55-1.73-0.81c-0.58-0.26-1.17-0.52-1.75-0.76
				c-0.59-0.25-1.18-0.49-1.77-0.72c-0.59-0.23-1.19-0.46-1.79-0.67c-0.6-0.22-1.2-0.43-1.8-0.63c-0.6-0.2-1.21-0.4-1.82-0.58
				c-0.61-0.19-1.22-0.37-1.83-0.54c-0.61-0.17-1.23-0.34-1.85-0.49c-0.62-0.16-1.24-0.3-1.86-0.45s-1.24-0.27-1.87-0.4
				c-0.62-0.13-1.25-0.24-1.88-0.35c-0.63-0.11-1.26-0.21-1.89-0.3c-0.63-0.09-1.26-0.18-1.89-0.26c-0.63-0.08-1.26-0.15-1.9-0.21
				c-0.63-0.06-1.27-0.12-1.9-0.16c-0.63-0.05-1.27-0.08-1.91-0.12c-0.64-0.03-1.27-0.05-1.91-0.07c-0.64-0.02-1.27-0.02-1.91-0.02
				c-0.64,0-1.27,0.01-1.91,0.03c-0.64,0.02-1.27,0.04-1.91,0.07c-0.64,0.03-1.27,0.07-1.91,0.12c-0.64,0.05-1.27,0.1-1.9,0.17
				c-0.63,0.06-1.27,0.14-1.9,0.22c-0.63,0.08-1.26,0.17-1.89,0.26s-1.26,0.2-1.88,0.31c-0.63,0.11-1.25,0.23-1.88,0.36
				c-0.62,0.13-1.25,0.26-1.87,0.4c-20.26,5.07-37.98,16.79-48.85,34.89c-10.63,17.69-14.83,39.63-9.77,59.82
				c0.07,0.27,0.15,0.53,0.25,0.79c1.15,6.8,4.85,14.6,8.32,20.55c4.17,7.15,9.9,13.19,14.6,19.97l22.13,31.67
				c3.8,5.45,7.35,11.35,11.51,16.51l14.09,0.03c-2.55-6.03-5.43-11.96-8.17-17.91c-4.81-10.36-9.52-20.76-14.14-31.21
				c-1.36-3.09-10.88-25.43-11.06-25.54l0.11-0.16l-0.06-0.09c0.13,0.09,4.62,8.85,5.34,10.02c7.13,13.64,13.97,27.43,20.52,41.36
				l7.45,16.48c1.49,3.33,2.85,6.83,4.62,10.01c5.82-10.9,11.04-22.15,16.49-33.25c5.56-11.32,11.42-22.64,16.48-34.18
				c0.65-1,1.14-2.23,1.67-3.31c1.2-2.4,2.4-4.8,3.72-7.14l0.19,0.22l-0.05,0.32c-1.15,2.3-1.98,4.71-3.04,7.05l-9.75,21.85
				l-10.07,22.53c-3.49,7.61-7.14,15.18-10.43,22.88l13.39,0.03c6.26-9.98,13.21-19.59,19.97-29.24
				c4.83-6.88,9.47-13.91,14.39-20.72c4.63-6.4,9.92-12.45,14.18-19.1C302.21,209.33,304.79,188.8,300.66,170.04z"/>
			<path class="st3" d="M224.36,158.64c5.18-0.35,10.73,1.8,14.71,5.04c0.29,0.23,0.57,0.47,0.84,0.72c0.27,0.25,0.54,0.5,0.8,0.76
				c0.26,0.26,0.52,0.53,0.76,0.8c0.25,0.27,0.49,0.55,0.72,0.84c0.23,0.29,0.46,0.58,0.68,0.87c0.22,0.3,0.43,0.6,0.64,0.91
				c0.21,0.31,0.4,0.62,0.59,0.94c0.19,0.32,0.37,0.64,0.54,0.96c0.17,0.33,0.34,0.66,0.49,0.99c0.16,0.34,0.3,0.67,0.44,1.02
				c0.14,0.34,0.27,0.69,0.39,1.04c0.12,0.35,0.24,0.7,0.34,1.05c0.11,0.35,0.2,0.71,0.29,1.07c0.09,0.36,0.17,0.72,0.23,1.08
				s0.13,0.73,0.18,1.09c0.05,0.37,0.09,0.73,0.12,1.1c0.03,0.37,0.06,0.74,0.08,1.12c0.02,0.37,0.02,0.74,0.02,1.12
				c0,0.37-0.01,0.74-0.03,1.12c-0.02,0.37-0.05,0.74-0.09,1.11c-0.04,0.37-0.09,0.74-0.14,1.11c-0.06,0.37-0.12,0.74-0.2,1.1
				c-0.07,0.37-0.16,0.73-0.25,1.09c-0.09,0.36-0.19,0.72-0.3,1.08c-0.11,0.36-0.23,0.71-0.36,1.06c-0.13,0.35-0.26,0.7-0.41,1.04
				c-0.14,0.34-0.3,0.68-0.46,1.02c-0.16,0.34-0.33,0.67-0.51,1c-0.18,0.33-0.36,0.65-0.55,0.97c-0.19,0.32-0.39,0.63-0.6,0.94
				c-0.21,0.31-0.42,0.61-0.65,0.91c-0.22,0.3-0.45,0.59-0.69,0.88c-4.36,5.28-9.81,7.48-16.48,8.14
				c-5.84-0.1-11.13-1.86-15.57-5.72c-0.28-0.24-0.55-0.49-0.82-0.74s-0.53-0.52-0.78-0.78c-0.25-0.27-0.5-0.54-0.74-0.82
				c-0.24-0.28-0.47-0.56-0.7-0.86c-0.23-0.29-0.45-0.59-0.66-0.89c-0.21-0.3-0.42-0.61-0.61-0.92c-0.2-0.31-0.39-0.63-0.57-0.95
				c-0.18-0.32-0.36-0.65-0.52-0.98c-0.17-0.33-0.32-0.66-0.47-1c-0.15-0.34-0.29-0.68-0.42-1.02c-0.13-0.34-0.26-0.69-0.38-1.04
				c-0.12-0.35-0.22-0.7-0.32-1.06c-0.1-0.36-0.19-0.71-0.27-1.07c-0.08-0.36-0.15-0.72-0.22-1.08c-0.07-0.36-0.12-0.73-0.17-1.1
				c-0.05-0.37-0.08-0.73-0.11-1.1c-0.4-5.82,1.83-11.78,5.66-16.13C212.16,161.54,217.91,159.08,224.36,158.64z"/>
		</g>
	</g>
</g>
</svg>
