<svg width="17" height="19" viewBox="0 0 17 19" fill="none" xmlns="http://www.w3.org/2000/svg">
<path d="M16.5217 8.04344C16.8253 8.34694 16.977 8.70945 16.977 9.13099C16.977 9.55252 16.8253 9.91503 16.5217 10.2185C16.2182 10.522 15.8304 10.6738 15.3583 10.6738C14.8862 10.6738 14.4984 10.522 14.1949 10.2185L10.1988 6.02009V16.845C10.1988 17.2834 10.0386 17.6543 9.71825 17.9578C9.39788 18.2613 9.01851 18.4131 8.58011 18.4131C8.14172 18.4131 7.76235 18.2613 7.44198 17.9578C7.12162 17.6543 6.96144 17.2834 6.96144 16.845V6.02009L2.96533 10.2185C2.66183 10.522 2.27402 10.6738 1.8019 10.6738C1.32979 10.6738 0.941982 10.522 0.63848 10.2185C0.334979 9.91503 0.183228 9.55252 0.183228 9.13099C0.183228 8.70945 0.334979 8.34694 0.63848 8.04344L7.41669 1.06289C7.72019 0.75939 8.108 0.607639 8.58011 0.607639C9.05223 0.607639 9.44004 0.75939 9.74354 1.06289L16.5217 8.04344Z" fill="white"/>
</svg>
