<svg width="23" height="19" viewBox="0 0 23 19" fill="none" xmlns="http://www.w3.org/2000/svg">
<path d="M3.5 18.7C2.66667 18.7 1.95833 18.4083 1.375 17.825C0.791667 17.2417 0.5 16.5333 0.5 15.7C0.5 15.05 0.687667 14.4667 1.063 13.95C1.43833 13.4333 1.91733 13.075 2.5 12.875V6.52501C1.91667 6.32501 1.43767 5.96668 1.063 5.45001C0.688333 4.93335 0.500667 4.35001 0.5 3.70001C0.5 2.86668 0.791667 2.15835 1.375 1.57501C1.95833 0.991679 2.66667 0.700012 3.5 0.700012C4.33333 0.700012 5.04167 0.991679 5.625 1.57501C6.20833 2.15835 6.5 2.86668 6.5 3.70001C6.5 4.35001 6.31267 4.93335 5.938 5.45001C5.56333 5.96668 5.084 6.32501 4.5 6.52501V8.70001H10.5V6.52501C9.91667 6.32501 9.43767 5.96668 9.063 5.45001C8.68833 4.93335 8.50067 4.35001 8.5 3.70001C8.5 2.86668 8.79167 2.15835 9.375 1.57501C9.95833 0.991679 10.6667 0.700012 11.5 0.700012C12.3333 0.700012 13.0417 0.991679 13.625 1.57501C14.2083 2.15835 14.5 2.86668 14.5 3.70001C14.5 4.35001 14.3127 4.93335 13.938 5.45001C13.5633 5.96668 13.084 6.32501 12.5 6.52501V8.70001H17.5C17.7833 8.70001 18.021 8.60435 18.213 8.41301C18.405 8.22168 18.5007 7.98401 18.5 7.70001V6.52501C17.9167 6.32501 17.4377 5.96668 17.063 5.45001C16.6883 4.93335 16.5007 4.35001 16.5 3.70001C16.5 2.86668 16.7917 2.15835 17.375 1.57501C17.9583 0.991679 18.6667 0.700012 19.5 0.700012C20.3333 0.700012 21.0417 0.991679 21.625 1.57501C22.2083 2.15835 22.5 2.86668 22.5 3.70001C22.5 4.35001 22.3127 4.93335 21.938 5.45001C21.5633 5.96668 21.084 6.32501 20.5 6.52501V7.70001C20.5 8.53335 20.2083 9.24168 19.625 9.82501C19.0417 10.4083 18.3333 10.7 17.5 10.7H12.5V12.875C13.0833 13.075 13.5627 13.4333 13.938 13.95C14.3133 14.4667 14.5007 15.05 14.5 15.7C14.5 16.5333 14.2083 17.2417 13.625 17.825C13.0417 18.4083 12.3333 18.7 11.5 18.7C10.6667 18.7 9.95833 18.4083 9.375 17.825C8.79167 17.2417 8.5 16.5333 8.5 15.7C8.5 15.05 8.68767 14.4667 9.063 13.95C9.43833 13.4333 9.91733 13.075 10.5 12.875V10.7H4.5V12.875C5.08333 13.075 5.56267 13.4333 5.938 13.95C6.31333 14.4667 6.50067 15.05 6.5 15.7C6.5 16.5333 6.20833 17.2417 5.625 17.825C5.04167 18.4083 4.33333 18.7 3.5 18.7ZM3.5 16.7C3.78333 16.7 4.021 16.604 4.213 16.412C4.405 16.22 4.50067 15.9827 4.5 15.7C4.49933 15.4173 4.40333 15.18 4.212 14.988C4.02067 14.796 3.78333 14.7 3.5 14.7C3.21667 14.7 2.97933 14.796 2.788 14.988C2.59667 15.18 2.50067 15.4173 2.5 15.7C2.49933 15.9827 2.59533 16.2203 2.788 16.413C2.98067 16.6057 3.218 16.7013 3.5 16.7ZM3.5 4.70001C3.78333 4.70001 4.021 4.60401 4.213 4.41201C4.405 4.22001 4.50067 3.98268 4.5 3.70001C4.49933 3.41735 4.40333 3.18001 4.212 2.98801C4.02067 2.79601 3.78333 2.70001 3.5 2.70001C3.21667 2.70001 2.97933 2.79601 2.788 2.98801C2.59667 3.18001 2.50067 3.41735 2.5 3.70001C2.49933 3.98268 2.59533 4.22035 2.788 4.41301C2.98067 4.60568 3.218 4.70135 3.5 4.70001ZM11.5 16.7C11.7833 16.7 12.021 16.604 12.213 16.412C12.405 16.22 12.5007 15.9827 12.5 15.7C12.4993 15.4173 12.4033 15.18 12.212 14.988C12.0207 14.796 11.7833 14.7 11.5 14.7C11.2167 14.7 10.9793 14.796 10.788 14.988C10.5967 15.18 10.5007 15.4173 10.5 15.7C10.4993 15.9827 10.5953 16.2203 10.788 16.413C10.9807 16.6057 11.218 16.7013 11.5 16.7ZM11.5 4.70001C11.7833 4.70001 12.021 4.60401 12.213 4.41201C12.405 4.22001 12.5007 3.98268 12.5 3.70001C12.4993 3.41735 12.4033 3.18001 12.212 2.98801C12.0207 2.79601 11.7833 2.70001 11.5 2.70001C11.2167 2.70001 10.9793 2.79601 10.788 2.98801C10.5967 3.18001 10.5007 3.41735 10.5 3.70001C10.4993 3.98268 10.5953 4.22035 10.788 4.41301C10.9807 4.60568 11.218 4.70135 11.5 4.70001ZM19.5 4.70001C19.7833 4.70001 20.021 4.60401 20.213 4.41201C20.405 4.22001 20.5007 3.98268 20.5 3.70001C20.4993 3.41735 20.4033 3.18001 20.212 2.98801C20.0207 2.79601 19.7833 2.70001 19.5 2.70001C19.2167 2.70001 18.9793 2.79601 18.788 2.98801C18.5967 3.18001 18.5007 3.41735 18.5 3.70001C18.4993 3.98268 18.5953 4.22035 18.788 4.41301C18.9807 4.60568 19.218 4.70135 19.5 4.70001Z" fill="white"/>
</svg>
